<svg width="1584" height="1417" viewBox="0 0 1584 1417" xmlns="http://www.w3.org/2000/svg">
  <defs>
    <!-- Shared gradients — all use full 1584 width -->
    <linearGradient id="bg" x1="0" y1="0" x2="1584" y2="1417" gradientUnits="userSpaceOnUse">
      <stop offset="0%" stop-color="#FAFBFF"/>
      <stop offset="100%" stop-color="#F4F6FF"/>
    </linearGradient>
    <radialGradient id="glow1" cx="10%" cy="80%" r="50%" gradientUnits="objectBoundingBox">
      <stop offset="0%" stop-color="#4F46E5" stop-opacity="0.07"/>
      <stop offset="100%" stop-color="#4F46E5" stop-opacity="0"/>
    </radialGradient>
    <radialGradient id="glow2" cx="90%" cy="10%" r="45%" gradientUnits="objectBoundingBox">
      <stop offset="0%" stop-color="#818CF8" stop-opacity="0.06"/>
      <stop offset="100%" stop-color="#818CF8" stop-opacity="0"/>
    </radialGradient>

    <!-- Section 1 gradients (1584 wide) -->
    <linearGradient id="topBar1" x1="0" y1="0" x2="1584" y2="0" gradientUnits="userSpaceOnUse">
      <stop offset="0%" stop-color="#4F46E5" stop-opacity="0"/>
      <stop offset="15%" stop-color="#4F46E5"/>
      <stop offset="60%" stop-color="#818CF8" stop-opacity="0.6"/>
      <stop offset="100%" stop-color="#818CF8" stop-opacity="0"/>
    </linearGradient>
    <linearGradient id="vdiv1" x1="0" y1="0" x2="0" y2="396" gradientUnits="userSpaceOnUse">
      <stop offset="0%" stop-color="#C7D2FE" stop-opacity="0"/>
      <stop offset="30%" stop-color="#C7D2FE"/>
      <stop offset="70%" stop-color="#C7D2FE"/>
      <stop offset="100%" stop-color="#C7D2FE" stop-opacity="0"/>
    </linearGradient>
    <linearGradient id="nameGrad" x1="0" y1="0" x2="1" y2="0">
      <stop offset="0%" stop-color="#0F0F1A"/>
      <stop offset="72%" stop-color="#0F0F1A"/>
      <stop offset="100%" stop-color="#0F0F1A" stop-opacity="0.2"/>
    </linearGradient>
    <linearGradient id="accentUnderline" x1="0" y1="0" x2="1" y2="0">
      <stop offset="0%" stop-color="#4F46E5"/>
      <stop offset="60%" stop-color="#818CF8" stop-opacity="0.5"/>
      <stop offset="100%" stop-color="#818CF8" stop-opacity="0"/>
    </linearGradient>

    <!-- Section 2 gradients (positioned at y=396, height=368) -->
    <linearGradient id="topBar2" x1="0" y1="396" x2="1584" y2="396" gradientUnits="userSpaceOnUse">
      <stop offset="0%" stop-color="#4F46E5" stop-opacity="0"/>
      <stop offset="15%" stop-color="#4F46E5"/>
      <stop offset="60%" stop-color="#818CF8" stop-opacity="0.5"/>
      <stop offset="100%" stop-color="#818CF8" stop-opacity="0"/>
    </linearGradient>
    <linearGradient id="vdiv2" x1="0" y1="396" x2="0" y2="764" gradientUnits="userSpaceOnUse">
      <stop offset="0%" stop-color="#C7D2FE" stop-opacity="0"/>
      <stop offset="25%" stop-color="#C7D2FE"/>
      <stop offset="75%" stop-color="#C7D2FE"/>
      <stop offset="100%" stop-color="#C7D2FE" stop-opacity="0"/>
    </linearGradient>

    <!-- Section 3 gradients (positioned at y=764, height=516) -->
    <linearGradient id="topBar3" x1="0" y1="764" x2="1584" y2="764" gradientUnits="userSpaceOnUse">
      <stop offset="0%" stop-color="#4F46E5" stop-opacity="0"/>
      <stop offset="15%" stop-color="#4F46E5"/>
      <stop offset="60%" stop-color="#818CF8" stop-opacity="0.5"/>
      <stop offset="100%" stop-color="#818CF8" stop-opacity="0"/>
    </linearGradient>

    <clipPath id="clip1"><rect x="0" y="0" width="1584" height="396"/></clipPath>
    <clipPath id="clip2"><rect x="0" y="396" width="1584" height="368"/></clipPath>
    <clipPath id="clip3"><rect x="0" y="764" width="1584" height="653"/></clipPath>
  </defs>

  <!-- Shared background -->
  <rect width="1584" height="1417" fill="url(#bg)"/>
  <rect width="1584" height="1417" fill="url(#glow1)"/>
  <rect width="1584" height="1417" fill="url(#glow2)"/>

  <!-- ═══════════════════════════════════════════════════ -->
  <!-- SECTION 1 — PROFILE BANNER  (0 → 396)             -->
  <!-- Exact copy of approved github_banner.svg           -->
  <!-- ═══════════════════════════════════════════════════ -->

  <!-- dot grid -->
  <g clip-path="url(#clip1)" fill="#94A3B8" opacity="0.18">
    <circle cx="60" cy="44" r="1.1"/><circle cx="160" cy="44" r="1.1"/><circle cx="260" cy="44" r="1.1"/><circle cx="360" cy="44" r="1.1"/><circle cx="460" cy="44" r="1.1"/><circle cx="560" cy="44" r="1.1"/><circle cx="660" cy="44" r="1.1"/><circle cx="760" cy="44" r="1.1"/><circle cx="860" cy="44" r="1.1"/><circle cx="960" cy="44" r="1.1"/><circle cx="1060" cy="44" r="1.1"/><circle cx="1160" cy="44" r="1.1"/><circle cx="1260" cy="44" r="1.1"/><circle cx="1360" cy="44" r="1.1"/><circle cx="1460" cy="44" r="1.1"/><circle cx="1560" cy="44" r="1.1"/>
    <circle cx="60" cy="132" r="1.1"/><circle cx="160" cy="132" r="1.1"/><circle cx="260" cy="132" r="1.1"/><circle cx="360" cy="132" r="1.1"/><circle cx="460" cy="132" r="1.1"/><circle cx="560" cy="132" r="1.1"/><circle cx="660" cy="132" r="1.1"/><circle cx="760" cy="132" r="1.1"/><circle cx="860" cy="132" r="1.1"/><circle cx="960" cy="132" r="1.1"/><circle cx="1060" cy="132" r="1.1"/><circle cx="1160" cy="132" r="1.1"/><circle cx="1260" cy="132" r="1.1"/><circle cx="1360" cy="132" r="1.1"/><circle cx="1460" cy="132" r="1.1"/><circle cx="1560" cy="132" r="1.1"/>
    <circle cx="60" cy="220" r="1.1"/><circle cx="160" cy="220" r="1.1"/><circle cx="260" cy="220" r="1.1"/><circle cx="360" cy="220" r="1.1"/><circle cx="460" cy="220" r="1.1"/><circle cx="560" cy="220" r="1.1"/><circle cx="660" cy="220" r="1.1"/><circle cx="760" cy="220" r="1.1"/><circle cx="860" cy="220" r="1.1"/><circle cx="960" cy="220" r="1.1"/><circle cx="1060" cy="220" r="1.1"/><circle cx="1160" cy="220" r="1.1"/><circle cx="1260" cy="220" r="1.1"/><circle cx="1360" cy="220" r="1.1"/><circle cx="1460" cy="220" r="1.1"/><circle cx="1560" cy="220" r="1.1"/>
    <circle cx="60" cy="308" r="1.1"/><circle cx="160" cy="308" r="1.1"/><circle cx="260" cy="308" r="1.1"/><circle cx="360" cy="308" r="1.1"/><circle cx="460" cy="308" r="1.1"/><circle cx="560" cy="308" r="1.1"/><circle cx="660" cy="308" r="1.1"/><circle cx="760" cy="308" r="1.1"/><circle cx="860" cy="308" r="1.1"/><circle cx="960" cy="308" r="1.1"/><circle cx="1060" cy="308" r="1.1"/><circle cx="1160" cy="308" r="1.1"/><circle cx="1260" cy="308" r="1.1"/><circle cx="1360" cy="308" r="1.1"/><circle cx="1460" cy="308" r="1.1"/><circle cx="1560" cy="308" r="1.1"/>
    <circle cx="60" cy="374" r="1.1"/><circle cx="160" cy="374" r="1.1"/><circle cx="260" cy="374" r="1.1"/><circle cx="360" cy="374" r="1.1"/><circle cx="460" cy="374" r="1.1"/><circle cx="560" cy="374" r="1.1"/><circle cx="660" cy="374" r="1.1"/><circle cx="760" cy="374" r="1.1"/><circle cx="860" cy="374" r="1.1"/><circle cx="960" cy="374" r="1.1"/><circle cx="1060" cy="374" r="1.1"/><circle cx="1160" cy="374" r="1.1"/><circle cx="1260" cy="374" r="1.1"/><circle cx="1360" cy="374" r="1.1"/><circle cx="1460" cy="374" r="1.1"/><circle cx="1560" cy="374" r="1.1"/>
  </g>
  <circle cx="60" cy="308" r="2" fill="#4F46E5" opacity="0.4"/>
  <circle cx="160" cy="308" r="1.5" fill="#4F46E5" opacity="0.25"/>
  <circle cx="60" cy="374" r="1.8" fill="#4F46E5" opacity="0.32"/>
  <circle cx="160" cy="374" r="1.3" fill="#4F46E5" opacity="0.18"/>
  <circle cx="260" cy="374" r="1.1" fill="#4F46E5" opacity="0.12"/>
  <circle cx="1560" cy="44" r="1.8" fill="#818CF8" opacity="0.35"/>
  <circle cx="1460" cy="44" r="1.3" fill="#818CF8" opacity="0.2"/>
  <circle cx="1560" cy="132" r="1.4" fill="#818CF8" opacity="0.2"/>

  <rect x="0" y="0" width="1584" height="2.5" fill="url(#topBar1)"/>

  <path d="M44 28 L44 52 L68 52" fill="none" stroke="#4F46E5" stroke-width="1.8" stroke-linecap="round" stroke-linejoin="round" opacity="0.55"/>

  <rect x="72" y="52" width="224" height="26" rx="5" fill="#EEF2FF" stroke="#4F46E5" stroke-width="0.8" stroke-opacity="0.35"/>
  <text x="184" y="70" font-family="system-ui,-apple-system,sans-serif" font-size="11" font-weight="600" fill="#4F46E5" text-anchor="middle" letter-spacing="2.5">SDE II  ·  AMAZON  ·  DENVER</text>

  <text x="68" y="188" font-family="system-ui,-apple-system,'Segoe UI',Helvetica,sans-serif" font-size="96" font-weight="800" fill="url(#nameGrad)" letter-spacing="-3.5">Akshay Chavan</text>
  <rect x="72" y="202" width="500" height="2.5" rx="1.5" fill="url(#accentUnderline)"/>
  <text x="72" y="244" font-family="system-ui,-apple-system,sans-serif" font-size="15.5" font-weight="400" fill="#6B7280" letter-spacing="0.1">Building distributed systems · vendor platforms · full-stack agentic AI at Amazon</text>

  <g font-family="'Courier New',monospace" font-size="11.5">
    <rect x="72" y="268" width="58" height="24" rx="4" fill="#EEF2FF" stroke="#C7D2FE" stroke-width="0.8"/>
    <text x="101" y="285" fill="#4338CA" text-anchor="middle">Java</text>
    <rect x="140" y="268" width="88" height="24" rx="4" fill="#EEF2FF" stroke="#C7D2FE" stroke-width="0.8"/>
    <text x="184" y="285" fill="#4338CA" text-anchor="middle">TypeScript</text>
    <rect x="238" y="268" width="68" height="24" rx="4" fill="#EEF2FF" stroke="#C7D2FE" stroke-width="0.8"/>
    <text x="272" y="285" fill="#4338CA" text-anchor="middle">Python</text>
    <rect x="316" y="268" width="50" height="24" rx="4" fill="#F0FDF4" stroke="#BBF7D0" stroke-width="0.8"/>
    <text x="341" y="285" fill="#15803D" text-anchor="middle">AWS</text>
    <rect x="376" y="268" width="56" height="24" rx="4" fill="#EEF2FF" stroke="#C7D2FE" stroke-width="0.8"/>
    <text x="404" y="285" fill="#4338CA" text-anchor="middle">React</text>
    <rect x="442" y="268" width="82" height="24" rx="4" fill="#FDF4FF" stroke="#E9D5FF" stroke-width="0.8"/>
    <text x="483" y="285" fill="#7E22CE" text-anchor="middle">Agentic AI</text>
    <rect x="534" y="268" width="50" height="24" rx="4" fill="#EEF2FF" stroke="#C7D2FE" stroke-width="0.8"/>
    <text x="559" y="285" fill="#4338CA" text-anchor="middle">LLMs</text>
  </g>

  <rect x="72" y="312" width="110" height="52" rx="7" fill="#FFFFFF" stroke="#E0E7FF" stroke-width="1"/>
  <text x="127" y="332" font-family="system-ui,sans-serif" font-size="9.5" fill="#4F46E5" text-anchor="middle" letter-spacing="1.5" opacity="0.8">EXPERIENCE</text>
  <text x="127" y="353" font-family="system-ui,sans-serif" font-size="18" font-weight="700" fill="#1E1B4B" text-anchor="middle">5+ years</text>
  <rect x="196" y="312" width="110" height="52" rx="7" fill="#FFFFFF" stroke="#E0E7FF" stroke-width="1"/>
  <text x="251" y="332" font-family="system-ui,sans-serif" font-size="9.5" fill="#4F46E5" text-anchor="middle" letter-spacing="1.5" opacity="0.8">EDUCATION</text>
  <text x="251" y="353" font-family="system-ui,sans-serif" font-size="18" font-weight="700" fill="#1E1B4B" text-anchor="middle">MS · NEU</text>
  <rect x="320" y="312" width="110" height="52" rx="7" fill="#EEF2FF" stroke="#4F46E5" stroke-width="0.8" stroke-opacity="0.45"/>
  <text x="375" y="332" font-family="system-ui,sans-serif" font-size="9.5" fill="#4F46E5" text-anchor="middle" letter-spacing="1.5" opacity="0.8">CURRENT</text>
  <text x="375" y="353" font-family="system-ui,sans-serif" font-size="18" font-weight="700" fill="#3730A3" text-anchor="middle">Amazon L5</text>

  <text x="72" y="386" font-family="'Courier New',monospace" font-size="11" fill="#A5B4FC" letter-spacing="0.8">akshaychavan7.github.io</text>

  <rect x="856" y="0" width="1" height="396" fill="url(#vdiv1)"/>

  <!-- Amazon logo ghosted -->
  <g transform="translate(1380, 28) scale(0.2654)" opacity="0.13">
    <path d="m 374.00642,142.18404 c -34.99948,25.79739 -85.72909,39.56123 -129.40634,39.56123 -61.24255,0 -116.37656,-22.65135 -158.08757,-60.32496 -3.2771,-2.96252 -0.34083,-6.9999 3.59171,-4.69283 45.01431,26.19064 100.67269,41.94697 158.16623,41.94697 38.774689,0 81.4295,-8.02237 120.6499,-24.67006 5.92501,-2.51683 10.87999,3.88009 5.08607,8.17965" style="fill:#ff9900"/>
    <path d="m 388.55678,125.53635 c -4.45688,-5.71527 -29.57261,-2.70033 -40.84585,-1.36327 -3.43442,0.41947 -3.95874,-2.56925 -0.86517,-4.71905 20.00346,-14.07844 52.82696,-10.01483 56.65462,-5.2958 3.82764,4.74526 -0.99624,37.64741 -19.79373,53.35128 -2.88385,2.41195 -5.63662,1.12734 -4.35198,-2.07113 4.2209,-10.53917 13.68519,-34.16054 9.20211,-39.90203" style="fill:#ff9900"/>
    <path d="M 348.49744,20.06598 V 6.38079 c 0,-2.07113 1.57301,-3.46062 3.46062,-3.46062 h 61.26875 c 1.96628,0 3.53929,1.41571 3.53929,3.46062 v 11.71893 c -0.0262,1.96626 -1.67788,4.53551 -4.61418,8.59912 l -31.74859,45.32893 c 11.79759,-0.28837 24.25059,1.46814 34.94706,7.49802 2.41195,1.36327 3.06737,3.35575 3.25089,5.32203 V 99.4506 c 0,1.99248 -2.20222,4.32576 -4.5093,3.1198 -18.84992,-9.88376 -43.887,-10.95865 -64.72939,0.10487 -2.12356,1.15354 -4.35199,-1.15354 -4.35199,-3.14602 V 85.66054 c 0,-2.22843 0.0262,-6.02989 2.25463,-9.41186 l 36.78224,-52.74829 h -32.01076 c -1.96626,0 -3.53927,-1.38948 -3.53927,-3.43441" style="fill:#221f1f"/>
    <path d="m 124.99883,105.45424 h -18.64017 c -1.78273,-0.13107 -3.19845,-1.46813 -3.32954,-3.17224 V 6.61676 c 0,-1.91383 1.59923,-3.43442 3.59171,-3.43442 h 17.38176 c 1.80898,0.0786 3.25089,1.46814 3.38199,3.19845 v 12.50545 h 0.34082 c 4.53551,-12.08598 13.05597,-17.7226 24.53896,-17.7226 11.66649,0 18.95477,5.63662 24.19814,17.7226 4.5093,-12.08598 14.76008,-17.7226 25.74495,-17.7226 7.81262,0 16.35931,3.22467 21.57646,10.46052 5.89879,8.04857 4.69281,19.74128 4.69281,29.99208 l -0.0262,60.37739 c 0,1.91383 -1.59923,3.46061 -3.59171,3.46061 h -18.61397 c -1.86138,-0.13107 -3.35574,-1.62543 -3.35574,-3.46061 V 51.29025 c 0,-4.03739 0.36702,-14.10466 -0.52434,-17.93233 -1.38949,-6.42311 -5.55797,-8.23209 -10.95865,-8.23209 -4.5093,0 -9.22833,3.01494 -11.14216,7.83885 -1.91383,4.8239 -1.73031,12.89867 -1.73031,18.32557 v 50.70338 c 0,1.91383 -1.59923,3.46061 -3.59171,3.46061 h -18.61395 c -1.88761,-0.13107 -3.35576,-1.62543 -3.35576,-3.46061 L 152.946,51.29025 c 0,-10.67025 1.75651,-26.37415 -11.48298,-26.37415 -13.39682,0 -12.87248,15.31063 -12.87248,26.37415 v 50.70338 c 0,1.91383 -1.59923,3.46061 -3.59171,3.46061" style="fill:#221f1f"/>
    <path d="m 469.51439,1.16364 c 27.65877,0 42.62858,23.75246 42.62858,53.95427 0,29.17934 -16.54284,52.32881 -42.62858,52.32881 -27.16066,0 -41.94697,-23.75246 -41.94697,-53.35127 0,-29.78234 14.96983,-52.93181 41.94697,-52.93181 m 0.15729,19.53156 c -13.73761,0 -14.60278,18.71881 -14.60278,30.38532 0,11.69271 -0.18352,36.65114 14.44549,36.65114 14.44548,0 15.12712,-20.13452 15.12712,-32.40403 0,-8.07477 -0.34082,-17.72257 -2.779,-25.3779 -2.09735,-6.65906 -6.26581,-9.25453 -12.19083,-9.25453" style="fill:#221f1f"/>
    <path d="M 548.00762,105.45424 H 529.4461 c -1.86141,-0.13107 -3.35577,-1.62543 -3.35577,-3.46061 l -0.0262,-95.69149 c 0.1573,-1.75653 1.7041,-3.1198 3.59171,-3.1198 h 17.27691 c 1.62543,0.0786 2.96249,1.17976 3.32954,2.67412 v 14.62899 h 0.3408 c 5.21717,-13.0822 12.53165,-19.32181 25.40412,-19.32181 8.36317,0 16.51662,3.01494 21.75999,11.27324 4.87633,7.65532 4.87633,20.5278 4.87633,29.78233 v 60.22011 c -0.20973,1.67786 -1.75653,3.01492 -3.59169,3.01492 h -18.69262 c -1.70411,-0.13107 -3.11982,-1.38948 -3.30332,-3.01492 V 50.47753 c 0,-10.46052 1.20597,-25.77117 -11.66651,-25.77117 -4.5355,0 -8.70399,3.04117 -10.77512,7.65532 -2.62167,5.84637 -2.96249,11.66651 -2.96249,18.11585 v 51.5161 c -0.0262,1.91383 -1.65166,3.46061 -3.64414,3.46061" style="fill:#221f1f"/>
    <path d="M 55.288261,59.75829 V 55.7209 c -13.475471,0 -27.711211,2.88385 -27.711211,18.77125 0,8.04857 4.16847,13.50169 11.32567,13.50169 5.24337,0 9.93618,-3.22467 12.8987,-8.46805 3.670341,-6.44935 3.486841,-12.50544 3.486841,-19.7675 m 18.79747,45.43378 c -1.23219,1.10111 -3.01495,1.17976 -4.40444,0.4457 -6.18716,-5.1385 -7.28828,-7.52423 -10.69647,-12.42678 -10.224571,10.4343 -17.460401,13.55409 -30.726141,13.55409 -15.67768,0 -27.89471,-9.67401 -27.89471,-29.04824 0,-15.12713 8.20587,-25.43035 19.87236,-30.46398 10.1197,-4.45688 24.25058,-5.24337 35.051931,-6.47556 v -2.41195 c 0,-4.43066 0.34082,-9.67403 -2.25465,-13.50167 -2.280881,-3.43442 -6.632861,-4.85013 -10.460531,-4.85013 -7.10475,0 -13.44924,3.64414 -14.99603,11.19459 -0.31461,1.67789 -1.5468,3.32955 -3.22467,3.4082 L 6.26276,32.67628 C 4.74218,32.33548 3.0643,31.10327 3.48377,28.76999 7.65225,6.85271 27.44596,0.24605 45.16856,0.24605 c 9.071011,0 20.921021,2.41195 28.078221,9.28076 9.07104,8.46804 8.20587,19.7675 8.20587,32.06321 v 29.04826 c 0,8.73022 3.61794,12.55786 7.02613,17.27691 1.20597,1.67786 1.46814,3.69656 -0.05244,4.95497 -3.80144,3.17225 -10.56538,9.07104 -14.28819,12.37436 l -0.05242,-0.0525" style="fill:#221f1f"/>
    <g transform="translate(244.36719,0)">
      <path d="M 55.288261,59.75829 V 55.7209 c -13.475471,0 -27.711211,2.88385 -27.711211,18.77125 0,8.04857 4.16847,13.50169 11.32567,13.50169 5.24337,0 9.93618,-3.22467 12.8987,-8.46805 3.670341,-6.44935 3.486841,-12.50544 3.486841,-19.7675 m 18.79747,45.43378 c -1.23219,1.10111 -3.01495,1.17976 -4.40444,0.4457 -6.18716,-5.1385 -7.28828,-7.52423 -10.69647,-12.42678 -10.224571,10.4343 -17.460401,13.55409 -30.726141,13.55409 -15.67768,0 -27.89471,-9.67401 -27.89471,-29.04824 0,-15.12713 8.20587,-25.43035 19.87236,-30.46398 10.1197,-4.45688 24.25058,-5.24337 35.051931,-6.47556 v -2.41195 c 0,-4.43066 0.34082,-9.67403 -2.25465,-13.50167 -2.280881,-3.43442 -6.632861,-4.85013 -10.460531,-4.85013 -7.10475,0 -13.44924,3.64414 -14.99603,11.19459 -0.31461,1.67789 -1.5468,3.32955 -3.22467,3.4082 L 6.26276,32.67628 C 4.74218,32.33548 3.0643,31.10327 3.48377,28.76999 7.65225,6.85271 27.44596,0.24605 45.16856,0.24605 c 9.071011,0 20.921021,2.41195 28.078221,9.28076 9.07104,8.46804 8.20587,19.7675 8.20587,32.06321 v 29.04826 c 0,8.73022 3.61794,12.55786 7.02613,17.27691 1.20597,1.67786 1.46814,3.69656 -0.05244,4.95497 -3.80144,3.17225 -10.56538,9.07104 -14.28819,12.37436 l -0.05242,-0.0525" style="fill:#221f1f"/>
    </g>
  </g>

  <text x="908" y="70" font-family="system-ui,-apple-system,sans-serif" font-size="11" fill="#A5B4FC" letter-spacing="3" font-weight="500">// WHAT I BUILD</text>
  <rect x="908" y="106" width="7" height="7" rx="1.5" fill="#4F46E5" opacity="0.7"/>
  <text x="928" y="117" font-family="system-ui,-apple-system,sans-serif" font-size="16" font-weight="600" fill="#1E1B4B">Distributed systems at Amazon scale</text>
  <text x="928" y="140" font-family="system-ui,-apple-system,sans-serif" font-size="13.5" font-weight="400" fill="#6B7280">Retail vendor platforms processing billions in GMV annually</text>
  <rect x="908" y="172" width="7" height="7" rx="1.5" fill="#4F46E5" opacity="0.7"/>
  <text x="928" y="183" font-family="system-ui,-apple-system,sans-serif" font-size="16" font-weight="600" fill="#1E1B4B">Full-stack agentic AI platforms</text>
  <text x="928" y="206" font-family="system-ui,-apple-system,sans-serif" font-size="13.5" font-weight="400" fill="#6B7280">LLM-powered pipelines, autonomous agents, and AI-native products</text>
  <rect x="908" y="238" width="7" height="7" rx="1.5" fill="#4F46E5" opacity="0.7"/>
  <text x="928" y="249" font-family="system-ui,-apple-system,sans-serif" font-size="16" font-weight="600" fill="#1E1B4B">Open-source side projects</text>
  <text x="928" y="272" font-family="system-ui,-apple-system,sans-serif" font-size="13.5" font-weight="400" fill="#6B7280">VaultForge · Appliqa · NexusChat · AI trading systems</text>
  <rect x="908" y="300" width="620" height="0.8" fill="#E0E7FF"/>
  <text x="908" y="336" font-family="system-ui,sans-serif" font-size="13.5" font-weight="400" fill="#9CA3AF">MS Computer Science · Northeastern University · Boston, MA</text>
  <text x="908" y="368" font-family="'Courier New',monospace" font-size="11.5" fill="#A5B4FC" letter-spacing="0.5">github.com/AkshayChavan7</text>

  <!-- Section divider 1→2 -->
  <rect x="0" y="396" width="1584" height="1" fill="#E0E7FF"/>


  <!-- ═══════════════════════════════════════════════════ -->
  <!-- SECTION 2 — ABOUT  (396 → 764)                    -->
  <!-- Exact copy of approved about_banner.svg, scaled    -->
  <!-- 860→1584 = 1.8419x, height 200→368               -->
  <!-- All coords multiplied by 1.8419, then y += 396    -->
  <!-- ═══════════════════════════════════════════════════ -->

  <g transform="translate(0, 396) scale(1.8419, 1.84)">
    <!-- dot grid -->
    <g fill="#94A3B8" opacity="0.15">
      <circle cx="40" cy="40" r="1"/><circle cx="120" cy="40" r="1"/><circle cx="200" cy="40" r="1"/><circle cx="280" cy="40" r="1"/><circle cx="360" cy="40" r="1"/><circle cx="440" cy="40" r="1"/><circle cx="520" cy="40" r="1"/><circle cx="600" cy="40" r="1"/><circle cx="680" cy="40" r="1"/><circle cx="760" cy="40" r="1"/><circle cx="840" cy="40" r="1"/>
      <circle cx="40" cy="110" r="1"/><circle cx="120" cy="110" r="1"/><circle cx="200" cy="110" r="1"/><circle cx="280" cy="110" r="1"/><circle cx="360" cy="110" r="1"/><circle cx="440" cy="110" r="1"/><circle cx="520" cy="110" r="1"/><circle cx="600" cy="110" r="1"/><circle cx="680" cy="110" r="1"/><circle cx="760" cy="110" r="1"/><circle cx="840" cy="110" r="1"/>
      <circle cx="40" cy="176" r="1"/><circle cx="120" cy="176" r="1"/><circle cx="200" cy="176" r="1"/><circle cx="280" cy="176" r="1"/><circle cx="360" cy="176" r="1"/><circle cx="440" cy="176" r="1"/><circle cx="520" cy="176" r="1"/><circle cx="600" cy="176" r="1"/><circle cx="680" cy="176" r="1"/><circle cx="760" cy="176" r="1"/><circle cx="840" cy="176" r="1"/>
    </g>
    <circle cx="40" cy="176" r="1.6" fill="#4F46E5" opacity="0.4"/>
    <circle cx="120" cy="176" r="1.2" fill="#4F46E5" opacity="0.22"/>
    <circle cx="840" cy="40" r="1.6" fill="#818CF8" opacity="0.35"/>
    <circle cx="760" cy="40" r="1.2" fill="#818CF8" opacity="0.2"/>

    <rect x="0" y="0" width="860" height="2" fill="url(#topBar2)"/>
    <rect x="0" y="198" width="860" height="2" fill="#E0E7FF"/>

    <path d="M24 16 L24 32 L40 32" fill="none" stroke="#4F46E5" stroke-width="1.4" stroke-linecap="round" stroke-linejoin="round" opacity="0.5"/>
    <path d="M836 184 L836 168 L820 168" fill="none" stroke="#818CF8" stroke-width="1.4" stroke-linecap="round" stroke-linejoin="round" opacity="0.3"/>

    <text x="40" y="36" font-family="'Courier New',monospace" font-size="9.5" fill="#A5B4FC" letter-spacing="2.5">// WHO I AM</text>
    <rect x="40" y="52" width="5" height="5" rx="1" fill="#4F46E5" opacity="0.7"/>
    <text x="54" y="60" font-family="system-ui,-apple-system,sans-serif" font-size="13" font-weight="600" fill="#1E1B4B">Shipped products used by millions</text>
    <text x="54" y="76" font-family="system-ui,-apple-system,sans-serif" font-size="12" fill="#6B7280">End-to-end ownership from design to production at Amazon scale</text>
    <rect x="40" y="92" width="5" height="5" rx="1" fill="#4F46E5" opacity="0.7"/>
    <text x="54" y="100" font-family="system-ui,-apple-system,sans-serif" font-size="13" font-weight="600" fill="#1E1B4B">Independent technical leader</text>
    <text x="54" y="116" font-family="system-ui,-apple-system,sans-serif" font-size="12" fill="#6B7280">Led cross-functional initiatives solo amid significant team attrition</text>
    <rect x="40" y="132" width="5" height="5" rx="1" fill="#4F46E5" opacity="0.7"/>
    <text x="54" y="140" font-family="system-ui,-apple-system,sans-serif" font-size="13" font-weight="600" fill="#1E1B4B">Builder outside of work</text>
    <text x="54" y="156" font-family="system-ui,-apple-system,sans-serif" font-size="12" fill="#6B7280">4 production side projects spanning AI, security, and fintech</text>

    <rect x="438" y="0" width="1" height="200" fill="url(#vdiv2)"/>

    <text x="466" y="36" font-family="'Courier New',monospace" font-size="9.5" fill="#A5B4FC" letter-spacing="2.5">// WHAT DRIVES ME</text>
    <rect x="466" y="52" width="5" height="5" rx="1" fill="#818CF8" opacity="0.7"/>
    <text x="480" y="60" font-family="system-ui,-apple-system,sans-serif" font-size="13" font-weight="600" fill="#1E1B4B">Systems thinking at every layer</text>
    <text x="480" y="76" font-family="system-ui,-apple-system,sans-serif" font-size="12" fill="#6B7280">From DB schema to infra to API contract — owns the full picture</text>
    <rect x="466" y="92" width="5" height="5" rx="1" fill="#818CF8" opacity="0.7"/>
    <text x="480" y="100" font-family="system-ui,-apple-system,sans-serif" font-size="13" font-weight="600" fill="#1E1B4B">Betting early on agentic AI</text>
    <text x="480" y="116" font-family="system-ui,-apple-system,sans-serif" font-size="12" fill="#6B7280">Building LLM-native products before it became mainstream</text>
    <rect x="466" y="132" width="5" height="5" rx="1" fill="#818CF8" opacity="0.7"/>
    <text x="480" y="140" font-family="system-ui,-apple-system,sans-serif" font-size="13" font-weight="600" fill="#1E1B4B">Bias toward impact, not activity</text>
    <text x="480" y="156" font-family="system-ui,-apple-system,sans-serif" font-size="12" fill="#6B7280">Hackathon winner · open-source contributor · fast ship cycles</text>
  </g>

  <!-- Section divider 2→3 -->
  <rect x="0" y="764" width="1584" height="1" fill="#E0E7FF"/>


  <!-- ═══════════════════════════════════════════════════ -->
  <!-- SECTION 3 — TECH STACK  (764 → 1417)              -->
  <!-- Exact copy of approved techstack.svg, scaled       -->
  <!-- 860→1584 = 1.8419x, height 280→516               -->
  <!-- ═══════════════════════════════════════════════════ -->

  <g transform="translate(0, 764) scale(1.8419, 1.8429)">
    <g fill="#94A3B8" opacity="0.18">
      <circle cx="40" cy="40" r="1"/><circle cx="120" cy="40" r="1"/><circle cx="200" cy="40" r="1"/><circle cx="280" cy="40" r="1"/><circle cx="360" cy="40" r="1"/><circle cx="440" cy="40" r="1"/><circle cx="520" cy="40" r="1"/><circle cx="600" cy="40" r="1"/><circle cx="680" cy="40" r="1"/><circle cx="760" cy="40" r="1"/><circle cx="840" cy="40" r="1"/>
      <circle cx="40" cy="120" r="1"/><circle cx="120" cy="120" r="1"/><circle cx="200" cy="120" r="1"/><circle cx="280" cy="120" r="1"/><circle cx="360" cy="120" r="1"/><circle cx="440" cy="120" r="1"/><circle cx="520" cy="120" r="1"/><circle cx="600" cy="120" r="1"/><circle cx="680" cy="120" r="1"/><circle cx="760" cy="120" r="1"/><circle cx="840" cy="120" r="1"/>
      <circle cx="40" cy="200" r="1"/><circle cx="120" cy="200" r="1"/><circle cx="200" cy="200" r="1"/><circle cx="280" cy="200" r="1"/><circle cx="360" cy="200" r="1"/><circle cx="440" cy="200" r="1"/><circle cx="520" cy="200" r="1"/><circle cx="600" cy="200" r="1"/><circle cx="680" cy="200" r="1"/><circle cx="760" cy="200" r="1"/><circle cx="840" cy="200" r="1"/>
      <circle cx="40" cy="280" r="1"/><circle cx="120" cy="280" r="1"/><circle cx="200" cy="280" r="1"/><circle cx="280" cy="280" r="1"/><circle cx="360" cy="280" r="1"/><circle cx="440" cy="280" r="1"/><circle cx="520" cy="280" r="1"/><circle cx="600" cy="280" r="1"/><circle cx="680" cy="280" r="1"/><circle cx="760" cy="280" r="1"/><circle cx="840" cy="280" r="1"/>
    </g>
    <circle cx="40" cy="200" r="1.6" fill="#4F46E5" opacity="0.4"/>
    <circle cx="120" cy="200" r="1.3" fill="#4F46E5" opacity="0.25"/>
    <circle cx="840" cy="40" r="1.8" fill="#818CF8" opacity="0.35"/>
    <circle cx="760" cy="40" r="1.3" fill="#818CF8" opacity="0.2"/>

    <rect x="0" y="0" width="860" height="2" fill="url(#topBar3)"/>
    <rect x="0" y="352" width="860" height="2" fill="#E0E7FF"/>

    <path d="M24 18 L24 34 L40 34" fill="none" stroke="#4F46E5" stroke-width="1.4" stroke-linecap="round" stroke-linejoin="round" opacity="0.5"/>
    <path d="M836 336 L836 320 L820 320" fill="none" stroke="#818CF8" stroke-width="1.4" stroke-linecap="round" stroke-linejoin="round" opacity="0.3"/>

    <!-- ROW 1: LANGUAGES -->
    <text x="40" y="44" font-family="'Courier New',monospace" font-size="9.5" fill="#A5B4FC" letter-spacing="2.5">LANGUAGES</text>
    <rect x="40" y="54" width="84" height="34" rx="6" fill="#FFFFFF" stroke="#E0E7FF" stroke-width="1"/>
    <text x="54" y="76" font-family="system-ui,sans-serif" font-size="18">☕</text>
    <text x="76" y="77" font-family="system-ui,sans-serif" font-size="12" font-weight="600" fill="#1E1B4B">Java</text>
    <rect x="134" y="54" width="124" height="34" rx="6" fill="#FFFFFF" stroke="#E0E7FF" stroke-width="1"/>
    <rect x="148" y="62" width="18" height="18" rx="2" fill="#3178C6"/>
    <text x="151" y="75" font-family="system-ui,sans-serif" font-size="10" font-weight="800" fill="#FFFFFF">TS</text>
    <text x="172" y="77" font-family="system-ui,sans-serif" font-size="12" font-weight="600" fill="#1E1B4B">TypeScript</text>
    <rect x="268" y="54" width="124" height="34" rx="6" fill="#FFFFFF" stroke="#E0E7FF" stroke-width="1"/>
    <rect x="282" y="62" width="18" height="18" rx="2" fill="#F7DF1E"/>
    <text x="285" y="75" font-family="system-ui,sans-serif" font-size="10" font-weight="800" fill="#222">JS</text>
    <text x="306" y="77" font-family="system-ui,sans-serif" font-size="12" font-weight="600" fill="#1E1B4B">JavaScript</text>
    <rect x="402" y="54" width="90" height="34" rx="6" fill="#FFFFFF" stroke="#E0E7FF" stroke-width="1"/>
    <text x="416" y="76" font-family="system-ui,sans-serif" font-size="18">🐍</text>
    <text x="438" y="77" font-family="system-ui,sans-serif" font-size="12" font-weight="600" fill="#1E1B4B">Python</text>
    <rect x="502" y="54" width="92" height="34" rx="6" fill="#FFFFFF" stroke="#E0E7FF" stroke-width="1"/>
    <rect x="516" y="62" width="18" height="18" rx="2" fill="#7F52FF"/>
    <text x="519" y="75" font-family="system-ui,sans-serif" font-size="10" font-weight="800" fill="#FFFFFF">Kt</text>
    <text x="540" y="77" font-family="system-ui,sans-serif" font-size="12" font-weight="600" fill="#1E1B4B">Kotlin</text>

    <!-- ROW 2: FRAMEWORKS -->
    <text x="40" y="118" font-family="'Courier New',monospace" font-size="9.5" fill="#A5B4FC" letter-spacing="2.5">FRAMEWORKS &amp; TOOLS</text>
    <rect x="40" y="128" width="82" height="34" rx="6" fill="#FFFFFF" stroke="#E0E7FF" stroke-width="1"/>
    <circle cx="57" cy="145" r="8" fill="#20232A"/>
    <circle cx="57" cy="145" r="3" fill="#61DAFB"/>
    <text x="70" y="151" font-family="system-ui,sans-serif" font-size="12" font-weight="600" fill="#1E1B4B">React</text>
    <rect x="132" y="128" width="84" height="34" rx="6" fill="#FFFFFF" stroke="#E0E7FF" stroke-width="1"/>
    <text x="146" y="150" font-family="system-ui,sans-serif" font-size="18">🌿</text>
    <text x="168" y="151" font-family="system-ui,sans-serif" font-size="12" font-weight="600" fill="#1E1B4B">Spring</text>
    <rect x="226" y="128" width="104" height="34" rx="6" fill="#FFFFFF" stroke="#E0E7FF" stroke-width="1"/>
    <rect x="240" y="136" width="18" height="18" rx="3" fill="#339933"/>
    <text x="243" y="149" font-family="system-ui,sans-serif" font-size="9" font-weight="700" fill="#FFFFFF">JS</text>
    <text x="264" y="151" font-family="system-ui,sans-serif" font-size="12" font-weight="600" fill="#1E1B4B">Node.js</text>
    <rect x="340" y="128" width="84" height="34" rx="6" fill="#FFFFFF" stroke="#E0E7FF" stroke-width="1"/>
    <text x="354" y="150" font-family="system-ui,sans-serif" font-size="18">🐳</text>
    <text x="376" y="151" font-family="system-ui,sans-serif" font-size="12" font-weight="600" fill="#1E1B4B">Docker</text>
    <rect x="434" y="128" width="120" height="34" rx="6" fill="#FFFFFF" stroke="#E0E7FF" stroke-width="1"/>
    <rect x="448" y="135" width="18" height="18" rx="3" fill="#326CE5"/>
    <text x="451" y="148" font-family="system-ui,sans-serif" font-size="9" font-weight="700" fill="#FFFFFF">K8s</text>
    <text x="472" y="151" font-family="system-ui,sans-serif" font-size="12" font-weight="600" fill="#1E1B4B">Kubernetes</text>
    <rect x="564" y="128" width="64" height="34" rx="6" fill="#FFFFFF" stroke="#E0E7FF" stroke-width="1"/>
    <rect x="578" y="135" width="18" height="18" rx="3" fill="#F05032"/>
    <text x="581" y="148" font-family="system-ui,sans-serif" font-size="9" font-weight="700" fill="#FFFFFF">Git</text>
    <text x="602" y="151" font-family="system-ui,sans-serif" font-size="12" font-weight="600" fill="#1E1B4B">Git</text>

    <!-- ROW 3: CLOUD & DATABASES -->
    <text x="40" y="192" font-family="'Courier New',monospace" font-size="9.5" fill="#A5B4FC" letter-spacing="2.5">CLOUD &amp; DATABASES</text>
    <rect x="40" y="202" width="72" height="34" rx="6" fill="#FFFFFF" stroke="#FED7AA" stroke-width="1"/>
    <rect x="54" y="210" width="18" height="18" rx="3" fill="#FF9900"/>
    <text x="57" y="223" font-family="system-ui,sans-serif" font-size="8" font-weight="800" fill="#FFFFFF">AWS</text>
    <text x="78" y="225" font-family="system-ui,sans-serif" font-size="12" font-weight="600" fill="#1E1B4B">AWS</text>
    <rect x="122" y="202" width="72" height="34" rx="6" fill="#FFFFFF" stroke="#E0E7FF" stroke-width="1"/>
    <rect x="136" y="210" width="18" height="18" rx="3" fill="#4285F4"/>
    <text x="139" y="223" font-family="system-ui,sans-serif" font-size="8" font-weight="800" fill="#FFFFFF">GCP</text>
    <text x="160" y="225" font-family="system-ui,sans-serif" font-size="12" font-weight="600" fill="#1E1B4B">GCP</text>
    <rect x="204" y="202" width="80" height="34" rx="6" fill="#FFFFFF" stroke="#E0E7FF" stroke-width="1"/>
    <rect x="218" y="210" width="18" height="18" rx="3" fill="#4479A1"/>
    <text x="220" y="223" font-family="system-ui,sans-serif" font-size="7.5" font-weight="800" fill="#FFFFFF">SQL</text>
    <text x="242" y="225" font-family="system-ui,sans-serif" font-size="12" font-weight="600" fill="#1E1B4B">MySQL</text>
    <rect x="294" y="202" width="110" height="34" rx="6" fill="#FFFFFF" stroke="#E0E7FF" stroke-width="1"/>
    <rect x="308" y="210" width="18" height="18" rx="3" fill="#47A248"/>
    <text x="310" y="223" font-family="system-ui,sans-serif" font-size="7.5" font-weight="800" fill="#FFFFFF">MDB</text>
    <text x="332" y="225" font-family="system-ui,sans-serif" font-size="12" font-weight="600" fill="#1E1B4B">MongoDB</text>
    <rect x="414" y="202" width="120" height="34" rx="6" fill="#FFFFFF" stroke="#E0E7FF" stroke-width="1"/>
    <rect x="428" y="210" width="18" height="18" rx="3" fill="#336791"/>
    <text x="430" y="223" font-family="system-ui,sans-serif" font-size="7.5" font-weight="800" fill="#FFFFFF">PG</text>
    <text x="452" y="225" font-family="system-ui,sans-serif" font-size="12" font-weight="600" fill="#1E1B4B">PostgreSQL</text>
    <rect x="544" y="202" width="74" height="34" rx="6" fill="#FFFFFF" stroke="#E0E7FF" stroke-width="1"/>
    <rect x="558" y="210" width="18" height="18" rx="3" fill="#DC382D"/>
    <text x="560" y="223" font-family="system-ui,sans-serif" font-size="7.5" font-weight="800" fill="#FFFFFF">RDS</text>
    <text x="582" y="225" font-family="system-ui,sans-serif" font-size="12" font-weight="600" fill="#1E1B4B">Redis</text>

    <!-- ROW 4: AI & AGENTS -->
    <text x="40" y="266" font-family="'Courier New',monospace" font-size="9.5" fill="#A5B4FC" letter-spacing="2.5">AI &amp; AGENTS</text>
    <rect x="40" y="276" width="112" height="34" rx="6" fill="#FDF4FF" stroke="#E9D5FF" stroke-width="1"/>
    <text x="54" y="298" font-family="system-ui,sans-serif" font-size="18">🧠</text>
    <text x="76" y="299" font-family="system-ui,sans-serif" font-size="12" font-weight="600" fill="#7E22CE">Agentic AI</text>
    <rect x="162" y="276" width="72" height="34" rx="6" fill="#FDF4FF" stroke="#E9D5FF" stroke-width="1"/>
    <text x="176" y="298" font-family="system-ui,sans-serif" font-size="18">🔌</text>
    <text x="198" y="299" font-family="system-ui,sans-serif" font-size="12" font-weight="600" fill="#7E22CE">MCP</text>
    <rect x="244" y="276" width="72" height="34" rx="6" fill="#FDF4FF" stroke="#E9D5FF" stroke-width="1"/>
    <text x="258" y="298" font-family="system-ui,sans-serif" font-size="18">📚</text>
    <text x="280" y="299" font-family="system-ui,sans-serif" font-size="12" font-weight="600" fill="#7E22CE">RAG</text>
    <rect x="326" y="276" width="172" height="34" rx="6" fill="#FDF4FF" stroke="#E9D5FF" stroke-width="1"/>
    <text x="340" y="298" font-family="system-ui,sans-serif" font-size="18">🧩</text>
    <text x="362" y="299" font-family="system-ui,sans-serif" font-size="12" font-weight="600" fill="#7E22CE">Context Engineering</text>
    <rect x="508" y="276" width="108" height="34" rx="6" fill="#FDF4FF" stroke="#E9D5FF" stroke-width="1"/>
    <text x="522" y="298" font-family="system-ui,sans-serif" font-size="18">🦜</text>
    <text x="544" y="299" font-family="system-ui,sans-serif" font-size="12" font-weight="600" fill="#7E22CE">LangChain</text>
    <rect x="626" y="276" width="82" height="34" rx="6" fill="#FDF4FF" stroke="#E9D5FF" stroke-width="1"/>
    <text x="640" y="298" font-family="system-ui,sans-serif" font-size="18">🤖</text>
    <text x="662" y="299" font-family="system-ui,sans-serif" font-size="12" font-weight="600" fill="#7E22CE">LLMs</text>
  </g>

  <!-- Bottom border -->
  <rect x="0" y="1414" width="1584" height="3" fill="#E0E7FF"/>
  <!-- Bottom-right corner bracket -->
  <path d="M1540 1262 L1540 1242 L1516 1242" fill="none" stroke="#818CF8" stroke-width="1.8" stroke-linecap="round" stroke-linejoin="round" opacity="0.35"/>

</svg>
